<?xml version="1.0" encoding="UTF-8" standalone="no"?>
<svg
   xmlns:dc="http://purl.org/dc/elements/1.1/"
   xmlns:cc="http://creativecommons.org/ns#"
   xmlns:rdf="http://www.w3.org/1999/02/22-rdf-syntax-ns#"
   xmlns:svg="http://www.w3.org/2000/svg"
   xmlns="http://www.w3.org/2000/svg"
   xmlns:sodipodi="http://sodipodi.sourceforge.net/DTD/sodipodi-0.dtd"
   xmlns:inkscape="http://www.inkscape.org/namespaces/inkscape"
   width="420mm"
   height="297mm"
   viewBox="0 0 420 297"
   version="1.1"
   id="svg8"
   inkscape:version="1.0.1 (c497b03c, 2020-09-10)"
   sodipodi:docname="middle_cutting_and_drilling_guide.svg">
  <defs
     id="defs2">
    <marker
       id="DistanceX"
       orient="auto"
       refX="0"
       refY="0"
       style="overflow:visible">
      <path
         d="M 3,-3 -3,3 M 0,-5 V 5"
         style="stroke:#000000;stroke-width:0.5"
         id="path448" />
    </marker>
    <pattern
       id="Hatch"
       patternUnits="userSpaceOnUse"
       width="8"
       height="8"
       x="0"
       y="0">
      <path
         d="M8 4 l-4,4"
         stroke="#000000"
         stroke-width="0.25"
         linecap="square"
         id="path451" />
      <path
         d="M6 2 l-4,4"
         stroke="#000000"
         stroke-width="0.25"
         linecap="square"
         id="path453" />
      <path
         d="M4 0 l-4,4"
         stroke="#000000"
         stroke-width="0.25"
         linecap="square"
         id="path455" />
    </pattern>
  </defs>
  <sodipodi:namedview
     id="base"
     pagecolor="#ffffff"
     bordercolor="#666666"
     borderopacity="1.0"
     inkscape:pageopacity="0.0"
     inkscape:pageshadow="2"
     inkscape:zoom="0.35"
     inkscape:cx="400"
     inkscape:cy="560"
     inkscape:document-units="mm"
     inkscape:current-layer="layer1"
     inkscape:document-rotation="0"
     showgrid="false"
     inkscape:window-width="1252"
     inkscape:window-height="847"
     inkscape:window-x="2186"
     inkscape:window-y="481"
     inkscape:window-maximized="0" />
  <metadata
     id="metadata5">
    <rdf:RDF>
      <cc:Work
         rdf:about="">
        <dc:format>image/svg+xml</dc:format>
        <dc:type
           rdf:resource="http://purl.org/dc/dcmitype/StillImage" />
        <dc:title></dc:title>
      </cc:Work>
    </rdf:RDF>
  </metadata>
  <g
     inkscape:label="Layer 1"
     inkscape:groupmode="layer"
     id="layer1">
    <g
       inkscape:label="0"
       id="g906"
       transform="matrix(0.26458333,0,0,0.26458333,0.13229167,-47.141709)">
      <path
         d="m 1308.0038,1113.2705 36.0907,-16.0688"
         style="fill:none;stroke:#000000"
         id="path462" />
      <path
         d="M 1344.0945,1097.2017 1376.058,1073.98"
         style="fill:none;stroke:#000000"
         id="path464" />
      <path
         d="m 1376.058,1073.98 25.2888,-28.0861"
         style="fill:none;stroke:#000000"
         id="path466" />
      <path
         d="m 1401.3468,1045.8939 h 73.5231"
         style="fill:none;stroke:#000000"
         id="path468" />
      <path
         d="m 1474.8699,1045.8939 38.6457,-8.214"
         style="fill:none;stroke:#000000"
         id="path470" />
      <path
         d="m 1513.5156,1037.6799 36.0907,-16.0687"
         style="fill:none;stroke:#000000"
         id="path472" />
      <path
         d="m 1549.6063,1021.6112 31.9635,-23.22178"
         style="fill:none;stroke:#000000"
         id="path474" />
      <path
         d="m 1581.5698,998.38942 26.434,-29.35899"
         style="fill:none;stroke:#000000"
         id="path476" />
      <path
         d="m 1608.0038,969.03043 19.7518,-34.21418"
         style="fill:none;stroke:#000000"
         id="path478" />
      <path
         d="m 1627.7556,934.81625 12.2079,-37.57304"
         style="fill:none;stroke:#000000"
         id="path480" />
      <path
         d="m 1639.9635,897.24321 4.131,-39.29045"
         style="fill:none;stroke:#000000"
         id="path482" />
      <path
         d="M 1644.0945,857.95276 V 574.48819"
         style="fill:none;stroke:#000000"
         id="path484" />
      <path
         d="m 1644.0945,574.48819 -4.131,-39.29197"
         style="fill:none;stroke:#000000"
         id="path486" />
      <path
         d="m 1639.9635,535.19622 -12.2079,-37.57228"
         style="fill:none;stroke:#000000"
         id="path488" />
      <path
         d="m 1627.7556,497.62394 -19.7518,-34.21229"
         style="fill:none;stroke:#000000"
         id="path490" />
      <path
         d="m 1608.0038,463.41165 -26.434,-29.35937"
         style="fill:none;stroke:#000000"
         id="path492" />
      <path
         d="m 1581.5698,434.05228 -31.9635,-23.22141"
         style="fill:none;stroke:#000000"
         id="path494" />
      <path
         d="m 1549.6063,410.83087 -36.0907,-16.07056"
         style="fill:none;stroke:#000000"
         id="path496" />
      <path
         d="m 1513.5156,394.76031 -38.6457,-8.21291"
         style="fill:none;stroke:#000000"
         id="path498" />
      <path
         d="m 1474.8699,386.5474 h -36.2872"
         style="fill:none;stroke:#000000"
         id="path500" />
      <path
         d="M 1438.5827,386.5474 V 366.61417"
         style="fill:none;stroke:#000000"
         id="path502" />
      <path
         d="m 1438.5827,366.61417 -4.131,-39.29197"
         style="fill:none;stroke:#000000"
         id="path504" />
      <path
         d="m 1434.4517,327.3222 -12.2079,-37.57228"
         style="fill:none;stroke:#000000"
         id="path506" />
      <path
         d="M 1422.2438,289.74992 1402.492,255.53764"
         style="fill:none;stroke:#000000"
         id="path508" />
      <path
         d="m 1402.492,255.53764 -26.434,-29.35937"
         style="fill:none;stroke:#000000"
         id="path510" />
      <path
         d="m 1376.058,226.17827 -31.9635,-23.22142"
         style="fill:none;stroke:#000000"
         id="path512" />
      <path
         d="M 1344.0945,202.95685 1308.0038,186.8863"
         style="fill:none;stroke:#000000"
         id="path514" />
      <path
         d="m 1308.0038,186.8863 -38.6457,-8.21291"
         style="fill:none;stroke:#000000"
         id="path516" />
      <path
         d="M 1269.3581,178.67339 H 374.73487"
         style="fill:none;stroke:#000000"
         id="path518" />
      <path
         d="m 374.73487,178.67339 -38.6434,8.21291"
         style="fill:none;stroke:#000000"
         id="path520" />
      <path
         d="M 336.09147,186.8863 300,202.95685"
         style="fill:none;stroke:#000000"
         id="path522" />
      <path
         d="m 300,202.95685 -31.96157,23.22142"
         style="fill:none;stroke:#000000"
         id="path524" />
      <path
         d="m 268.03843,226.17827 -26.43515,29.35937"
         style="fill:none;stroke:#000000"
         id="path526" />
      <path
         d="m 241.60328,255.53764 -19.75371,34.21228"
         style="fill:none;stroke:#000000"
         id="path528" />
      <path
         d="M 221.84957,289.74992 209.64132,327.3222"
         style="fill:none;stroke:#000000"
         id="path530" />
      <path
         d="m 209.64132,327.3222 -4.12951,39.29197"
         style="fill:none;stroke:#000000"
         id="path532" />
      <path
         d="M 205.51181,366.61417 V 386.5474"
         style="fill:none;stroke:#000000"
         id="path534" />
      <path
         d="M 205.51181,386.5474 H 169.22305"
         style="fill:none;stroke:#000000"
         id="path536" />
      <path
         d="m 169.22305,386.5474 -38.6434,8.21291"
         style="fill:none;stroke:#000000"
         id="path538" />
      <path
         d="M 130.57965,394.76031 94.488189,410.83087"
         style="fill:none;stroke:#000000"
         id="path540" />
      <path
         d="M 94.488189,410.83087 62.526614,434.05228"
         style="fill:none;stroke:#000000"
         id="path542" />
      <path
         d="M 62.526614,434.05228 36.091313,463.41165"
         style="fill:none;stroke:#000000"
         id="path544" />
      <path
         d="M 36.091313,463.41165 16.337915,497.62394"
         style="fill:none;stroke:#000000"
         id="path546" />
      <path
         d="M 16.337915,497.62394 4.129587,535.19622"
         style="fill:none;stroke:#000000"
         id="path548" />
      <path
         d="M 4.129587,535.19622 0,574.48819"
         style="fill:none;stroke:#000000"
         id="path550" />
      <path
         d="M 0,574.48819 V 857.95276"
         style="fill:none;stroke:#000000"
         id="path552" />
      <path
         d="m 0,857.95276 4.129587,39.29045"
         style="fill:none;stroke:#000000"
         id="path554" />
      <path
         d="m 4.129587,897.24321 12.208328,37.57304"
         style="fill:none;stroke:#000000"
         id="path556" />
      <path
         d="m 16.337915,934.81625 19.753398,34.21418"
         style="fill:none;stroke:#000000"
         id="path558" />
      <path
         d="m 36.091313,969.03043 26.435301,29.35899"
         style="fill:none;stroke:#000000"
         id="path560" />
      <path
         d="m 62.526614,998.38942 31.961575,23.22178"
         style="fill:none;stroke:#000000"
         id="path562" />
      <path
         d="m 94.488189,1021.6112 36.091461,16.0687"
         style="fill:none;stroke:#000000"
         id="path564" />
      <path
         d="m 130.57965,1037.6799 38.6434,8.214"
         style="fill:none;stroke:#000000"
         id="path566" />
      <path
         d="m 169.22305,1045.8939 h 73.52618"
         style="fill:none;stroke:#000000"
         id="path568" />
      <path
         d="m 242.74923,1045.8939 25.2892,28.0861"
         style="fill:none;stroke:#000000"
         id="path570" />
      <path
         d="M 268.03843,1073.98 300,1097.2017"
         style="fill:none;stroke:#000000"
         id="path572" />
      <path
         d="m 300,1097.2017 36.09147,16.0688"
         style="fill:none;stroke:#000000"
         id="path574" />
      <path
         d="m 336.09147,1113.2705 38.6434,8.2139"
         style="fill:none;stroke:#000000"
         id="path576" />
      <path
         d="M 374.73487,1121.4844 H 1269.3581"
         style="fill:none;stroke:#000000"
         id="path578" />
      <path
         d="m 1269.3581,1121.4844 38.6457,-8.2139"
         style="fill:none;stroke:#000000"
         id="path580" />
      <path
         d="m 510.57638,500.7685 -6.25134,-4.08567"
         style="fill:none;stroke:#000000"
         id="path582" />
      <path
         d="m 504.32504,496.68283 -4.58457,-5.8885"
         style="fill:none;stroke:#000000"
         id="path584" />
      <path
         d="m 499.74047,490.79433 -2.42268,-7.06016"
         style="fill:none;stroke:#000000"
         id="path586" />
      <path
         d="m 497.31779,483.73417 v -7.46834"
         style="fill:none;stroke:#000000"
         id="path588" />
      <path
         d="m 497.31779,476.26583 2.42268,-7.06016"
         style="fill:none;stroke:#000000"
         id="path590" />
      <path
         d="m 499.74047,469.20567 4.58457,-5.88851"
         style="fill:none;stroke:#000000"
         id="path592" />
      <path
         d="m 504.32504,463.31716 6.25134,-4.08566"
         style="fill:none;stroke:#000000"
         id="path594" />
      <path
         d="m 510.57638,459.2315 7.23779,-1.8293"
         style="fill:none;stroke:#000000"
         id="path596" />
      <path
         d="m 517.81417,457.4022 7.43811,0.61607"
         style="fill:none;stroke:#000000"
         id="path598" />
      <path
         d="m 525.25228,458.01827 6.83717,2.99716"
         style="fill:none;stroke:#000000"
         id="path600" />
      <path
         d="m 532.08945,461.01543 5.49165,5.05701"
         style="fill:none;stroke:#000000"
         id="path602" />
      <path
         d="m 537.5811,466.07244 3.55276,6.56504"
         style="fill:none;stroke:#000000"
         id="path604" />
      <path
         d="M 541.13386,472.63748 542.36221,480"
         style="fill:none;stroke:#000000"
         id="path606" />
      <path
         d="m 542.36221,480 -1.22835,7.36252"
         style="fill:none;stroke:#000000"
         id="path608" />
      <path
         d="m 541.13386,487.36252 -3.55276,6.56504"
         style="fill:none;stroke:#000000"
         id="path610" />
      <path
         d="m 537.5811,493.92756 -5.49165,5.05701"
         style="fill:none;stroke:#000000"
         id="path612" />
      <path
         d="m 532.08945,498.98457 -6.83717,2.99716"
         style="fill:none;stroke:#000000"
         id="path614" />
      <path
         d="m 525.25228,501.98173 -7.43811,0.61985"
         style="fill:none;stroke:#000000"
         id="path616" />
      <path
         d="m 517.81417,502.60158 -7.23779,-1.83308"
         style="fill:none;stroke:#000000"
         id="path618" />
      <path
         d="m 1115.3008,500.7685 -6.2514,-4.08567"
         style="fill:none;stroke:#000000"
         id="path620" />
      <path
         d="m 1109.0494,496.68283 -4.5845,-5.8885"
         style="fill:none;stroke:#000000"
         id="path622" />
      <path
         d="m 1104.4649,490.79433 -2.4227,-7.06016"
         style="fill:none;stroke:#000000"
         id="path624" />
      <path
         d="m 1102.0422,483.73417 v -7.46834"
         style="fill:none;stroke:#000000"
         id="path626" />
      <path
         d="m 1102.0422,476.26583 2.4227,-7.06016"
         style="fill:none;stroke:#000000"
         id="path628" />
      <path
         d="m 1104.4649,469.20567 4.5845,-5.88851"
         style="fill:none;stroke:#000000"
         id="path630" />
      <path
         d="m 1109.0494,463.31716 6.2514,-4.08566"
         style="fill:none;stroke:#000000"
         id="path632" />
      <path
         d="m 1115.3008,459.2315 7.2378,-1.8293"
         style="fill:none;stroke:#000000"
         id="path634" />
      <path
         d="m 1122.5386,457.4022 7.4381,0.61607"
         style="fill:none;stroke:#000000"
         id="path636" />
      <path
         d="m 1129.9767,458.01827 6.8372,2.99716"
         style="fill:none;stroke:#000000"
         id="path638" />
      <path
         d="m 1136.8139,461.01543 5.4916,5.05701"
         style="fill:none;stroke:#000000"
         id="path640" />
      <path
         d="m 1142.3055,466.07244 3.5528,6.56504"
         style="fill:none;stroke:#000000"
         id="path642" />
      <path
         d="M 1145.8583,472.63748 1147.0866,480"
         style="fill:none;stroke:#000000"
         id="path644" />
      <path
         d="m 1147.0866,480 -1.2283,7.36252"
         style="fill:none;stroke:#000000"
         id="path646" />
      <path
         d="m 1145.8583,487.36252 -3.5528,6.56504"
         style="fill:none;stroke:#000000"
         id="path648" />
      <path
         d="m 1142.3055,493.92756 -5.4916,5.05701"
         style="fill:none;stroke:#000000"
         id="path650" />
      <path
         d="m 1136.8139,498.98457 -6.8372,2.99716"
         style="fill:none;stroke:#000000"
         id="path652" />
      <path
         d="m 1129.9767,501.98173 -7.4381,0.61985"
         style="fill:none;stroke:#000000"
         id="path654" />
      <path
         d="m 1122.5386,502.60158 -7.2378,-1.83308"
         style="fill:none;stroke:#000000"
         id="path656" />
      <path
         d="m 605.47276,483.28063 v -6.56126"
         style="fill:none;stroke:#000000"
         id="path658" />
      <path
         d="m 605.47276,476.71937 5.12882,-4.08945"
         style="fill:none;stroke:#000000"
         id="path660" />
      <path
         d="m 610.60158,472.62992 6.39495,1.4589"
         style="fill:none;stroke:#000000"
         id="path662" />
      <path
         d="M 616.99653,474.08882 619.84252,480"
         style="fill:none;stroke:#000000"
         id="path664" />
      <path
         d="m 619.84252,480 -2.84599,5.91118"
         style="fill:none;stroke:#000000"
         id="path666" />
      <path
         d="m 616.99653,485.91118 -6.39495,1.4589"
         style="fill:none;stroke:#000000"
         id="path668" />
      <path
         d="m 610.60158,487.37008 -5.12882,-4.08945"
         style="fill:none;stroke:#000000"
         id="path670" />
      <path
         d="m 1025.0003,483.28063 v -6.56126"
         style="fill:none;stroke:#000000"
         id="path672" />
      <path
         d="m 1025.0003,476.71937 5.1288,-4.08945"
         style="fill:none;stroke:#000000"
         id="path674" />
      <path
         d="m 1030.1291,472.62992 6.395,1.4589"
         style="fill:none;stroke:#000000"
         id="path676" />
      <path
         d="M 1036.5241,474.08882 1039.3701,480"
         style="fill:none;stroke:#000000"
         id="path678" />
      <path
         d="m 1039.3701,480 -2.846,5.91118"
         style="fill:none;stroke:#000000"
         id="path680" />
      <path
         d="m 1036.5241,485.91118 -6.395,1.4589"
         style="fill:none;stroke:#000000"
         id="path682" />
      <path
         d="m 1030.1291,487.37008 -5.1288,-4.08945"
         style="fill:none;stroke:#000000"
         id="path684" />
      <path
         d="m 420.27591,483.28063 v -6.56126"
         style="fill:none;stroke:#000000"
         id="path686" />
      <path
         d="m 420.27591,476.71937 5.12881,-4.08945"
         style="fill:none;stroke:#000000"
         id="path688" />
      <path
         d="m 425.40472,472.62992 6.39496,1.4589"
         style="fill:none;stroke:#000000"
         id="path690" />
      <path
         d="M 431.79968,474.08882 434.64567,480"
         style="fill:none;stroke:#000000"
         id="path692" />
      <path
         d="m 434.64567,480 -2.84599,5.91118"
         style="fill:none;stroke:#000000"
         id="path694" />
      <path
         d="m 431.79968,485.91118 -6.39496,1.4589"
         style="fill:none;stroke:#000000"
         id="path696" />
      <path
         d="m 425.40472,487.37008 -5.12881,-4.08945"
         style="fill:none;stroke:#000000"
         id="path698" />
      <path
         d="m 1210.1972,483.28063 v -6.56126"
         style="fill:none;stroke:#000000"
         id="path700" />
      <path
         d="m 1210.1972,476.71937 5.1288,-4.08945"
         style="fill:none;stroke:#000000"
         id="path702" />
      <path
         d="m 1215.326,472.62992 6.3949,1.4589"
         style="fill:none;stroke:#000000"
         id="path704" />
      <path
         d="M 1221.7209,474.08882 1224.5669,480"
         style="fill:none;stroke:#000000"
         id="path706" />
      <path
         d="m 1224.5669,480 -2.846,5.91118"
         style="fill:none;stroke:#000000"
         id="path708" />
      <path
         d="m 1221.7209,485.91118 -6.3949,1.4589"
         style="fill:none;stroke:#000000"
         id="path710" />
      <path
         d="m 1215.326,487.37008 -5.1288,-4.08945"
         style="fill:none;stroke:#000000"
         id="path712" />
      <path
         d="m 515.73543,630.97323 -7.72913,-1.64032"
         style="fill:none;stroke:#000000"
         id="path714" />
      <path
         d="m 508.0063,629.33291 -7.2189,-3.21638"
         style="fill:none;stroke:#000000"
         id="path716" />
      <path
         d="m 500.7874,626.11653 -6.39118,-4.64503"
         style="fill:none;stroke:#000000"
         id="path718" />
      <path
         d="m 494.39622,621.4715 -5.28756,-5.86961"
         style="fill:none;stroke:#000000"
         id="path720" />
      <path
         d="m 489.10866,615.60189 -3.9496,-6.84473"
         style="fill:none;stroke:#000000"
         id="path722" />
      <path
         d="m 485.15906,608.75716 -2.44158,-7.51369"
         style="fill:none;stroke:#000000"
         id="path724" />
      <path
         d="m 482.71748,601.24347 -0.82772,-7.85764"
         style="fill:none;stroke:#000000"
         id="path726" />
      <path
         d="m 481.88976,593.38583 0.82772,-7.85764"
         style="fill:none;stroke:#000000"
         id="path728" />
      <path
         d="m 482.71748,585.52819 2.44158,-7.5137"
         style="fill:none;stroke:#000000"
         id="path730" />
      <path
         d="m 485.15906,578.01449 3.9496,-6.84473"
         style="fill:none;stroke:#000000"
         id="path732" />
      <path
         d="m 489.10866,571.16976 5.28756,-5.8696"
         style="fill:none;stroke:#000000"
         id="path734" />
      <path
         d="m 494.39622,565.30016 6.39118,-4.64504"
         style="fill:none;stroke:#000000"
         id="path736" />
      <path
         d="m 500.7874,560.65512 7.2189,-3.21638"
         style="fill:none;stroke:#000000"
         id="path738" />
      <path
         d="m 508.0063,557.43874 7.72913,-1.64032"
         style="fill:none;stroke:#000000"
         id="path740" />
      <path
         d="m 515.73543,555.79842 h 7.89922"
         style="fill:none;stroke:#000000"
         id="path742" />
      <path
         d="m 523.63465,555.79842 7.72913,1.64032"
         style="fill:none;stroke:#000000"
         id="path744" />
      <path
         d="m 531.36378,557.43874 7.2189,3.21638"
         style="fill:none;stroke:#000000"
         id="path746" />
      <path
         d="m 538.58268,560.65512 6.39118,4.64504"
         style="fill:none;stroke:#000000"
         id="path748" />
      <path
         d="m 544.97386,565.30016 5.28756,5.8696"
         style="fill:none;stroke:#000000"
         id="path750" />
      <path
         d="m 550.26142,571.16976 3.9496,6.84473"
         style="fill:none;stroke:#000000"
         id="path752" />
      <path
         d="m 554.21102,578.01449 2.44158,7.5137"
         style="fill:none;stroke:#000000"
         id="path754" />
      <path
         d="m 556.6526,585.52819 0.82772,7.85764"
         style="fill:none;stroke:#000000"
         id="path756" />
      <path
         d="m 557.48032,593.38583 -0.82772,7.85764"
         style="fill:none;stroke:#000000"
         id="path758" />
      <path
         d="m 556.6526,601.24347 -2.44158,7.51369"
         style="fill:none;stroke:#000000"
         id="path760" />
      <path
         d="m 554.21102,608.75716 -3.9496,6.84473"
         style="fill:none;stroke:#000000"
         id="path762" />
      <path
         d="m 550.26142,615.60189 -5.28756,5.86961"
         style="fill:none;stroke:#000000"
         id="path764" />
      <path
         d="m 544.97386,621.4715 -6.39118,4.64503"
         style="fill:none;stroke:#000000"
         id="path766" />
      <path
         d="m 538.58268,626.11653 -7.2189,3.21638"
         style="fill:none;stroke:#000000"
         id="path768" />
      <path
         d="m 531.36378,629.33291 -7.72913,1.64032"
         style="fill:none;stroke:#000000"
         id="path770" />
      <path
         d="m 523.63465,630.97323 h -7.89922"
         style="fill:none;stroke:#000000"
         id="path772" />
      <path
         d="m 510.57638,840.92447 -6.25134,-4.08264"
         style="fill:none;stroke:#000000"
         id="path774" />
      <path
         d="m 504.32504,836.84183 -4.58457,-5.89115"
         style="fill:none;stroke:#000000"
         id="path776" />
      <path
         d="m 499.74047,830.95068 -2.42268,-7.06054"
         style="fill:none;stroke:#000000"
         id="path778" />
      <path
         d="m 497.31779,823.89014 v -7.46532"
         style="fill:none;stroke:#000000"
         id="path780" />
      <path
         d="m 497.31779,816.42482 2.42268,-7.06054"
         style="fill:none;stroke:#000000"
         id="path782" />
      <path
         d="m 499.74047,809.36428 4.58457,-5.89077"
         style="fill:none;stroke:#000000"
         id="path784" />
      <path
         d="m 504.32504,803.47351 6.25134,-4.08302"
         style="fill:none;stroke:#000000"
         id="path786" />
      <path
         d="m 510.57638,799.39049 7.23779,-1.83269"
         style="fill:none;stroke:#000000"
         id="path788" />
      <path
         d="m 517.81417,797.5578 7.43811,0.61644"
         style="fill:none;stroke:#000000"
         id="path790" />
      <path
         d="m 525.25228,798.17424 6.83717,2.99867"
         style="fill:none;stroke:#000000"
         id="path792" />
      <path
         d="m 532.08945,801.17291 5.49165,5.05588"
         style="fill:none;stroke:#000000"
         id="path794" />
      <path
         d="m 537.5811,806.22879 3.55276,6.56542"
         style="fill:none;stroke:#000000"
         id="path796" />
      <path
         d="m 541.13386,812.79421 1.22835,7.36327"
         style="fill:none;stroke:#000000"
         id="path798" />
      <path
         d="m 542.36221,820.15748 -1.22835,7.36328"
         style="fill:none;stroke:#000000"
         id="path800" />
      <path
         d="m 541.13386,827.52076 -3.55276,6.56541"
         style="fill:none;stroke:#000000"
         id="path802" />
      <path
         d="m 537.5811,834.08617 -5.49165,5.05588"
         style="fill:none;stroke:#000000"
         id="path804" />
      <path
         d="m 532.08945,839.14205 -6.83717,2.99867"
         style="fill:none;stroke:#000000"
         id="path806" />
      <path
         d="m 525.25228,842.14072 -7.43811,0.61644"
         style="fill:none;stroke:#000000"
         id="path808" />
      <path
         d="m 517.81417,842.75716 -7.23779,-1.83269"
         style="fill:none;stroke:#000000"
         id="path810" />
      <path
         d="m 1115.3008,840.92447 -6.2514,-4.08264"
         style="fill:none;stroke:#000000"
         id="path812" />
      <path
         d="m 1109.0494,836.84183 -4.5845,-5.89115"
         style="fill:none;stroke:#000000"
         id="path814" />
      <path
         d="m 1104.4649,830.95068 -2.4227,-7.06054"
         style="fill:none;stroke:#000000"
         id="path816" />
      <path
         d="m 1102.0422,823.89014 v -7.46532"
         style="fill:none;stroke:#000000"
         id="path818" />
      <path
         d="m 1102.0422,816.42482 2.4227,-7.06054"
         style="fill:none;stroke:#000000"
         id="path820" />
      <path
         d="m 1104.4649,809.36428 4.5845,-5.89077"
         style="fill:none;stroke:#000000"
         id="path822" />
      <path
         d="m 1109.0494,803.47351 6.2514,-4.08302"
         style="fill:none;stroke:#000000"
         id="path824" />
      <path
         d="m 1115.3008,799.39049 7.2378,-1.83269"
         style="fill:none;stroke:#000000"
         id="path826" />
      <path
         d="m 1122.5386,797.5578 7.4381,0.61644"
         style="fill:none;stroke:#000000"
         id="path828" />
      <path
         d="m 1129.9767,798.17424 6.8372,2.99867"
         style="fill:none;stroke:#000000"
         id="path830" />
      <path
         d="m 1136.8139,801.17291 5.4916,5.05588"
         style="fill:none;stroke:#000000"
         id="path832" />
      <path
         d="m 1142.3055,806.22879 3.5528,6.56542"
         style="fill:none;stroke:#000000"
         id="path834" />
      <path
         d="m 1145.8583,812.79421 1.2283,7.36327"
         style="fill:none;stroke:#000000"
         id="path836" />
      <path
         d="m 1147.0866,820.15748 -1.2283,7.36328"
         style="fill:none;stroke:#000000"
         id="path838" />
      <path
         d="m 1145.8583,827.52076 -3.5528,6.56541"
         style="fill:none;stroke:#000000"
         id="path840" />
      <path
         d="m 1142.3055,834.08617 -5.4916,5.05588"
         style="fill:none;stroke:#000000"
         id="path842" />
      <path
         d="m 1136.8139,839.14205 -6.8372,2.99867"
         style="fill:none;stroke:#000000"
         id="path844" />
      <path
         d="m 1129.9767,842.14072 -7.4381,0.61644"
         style="fill:none;stroke:#000000"
         id="path846" />
      <path
         d="m 1122.5386,842.75716 -7.2378,-1.83269"
         style="fill:none;stroke:#000000"
         id="path848" />
      <path
         d="m 605.47276,823.43735 v -6.55974"
         style="fill:none;stroke:#000000"
         id="path850" />
      <path
         d="m 605.47276,816.87761 5.12882,-4.08945"
         style="fill:none;stroke:#000000"
         id="path852" />
      <path
         d="m 610.60158,812.78816 6.39495,1.45927"
         style="fill:none;stroke:#000000"
         id="path854" />
      <path
         d="m 616.99653,814.24743 2.84599,5.91005"
         style="fill:none;stroke:#000000"
         id="path856" />
      <path
         d="m 619.84252,820.15748 -2.84599,5.91005"
         style="fill:none;stroke:#000000"
         id="path858" />
      <path
         d="m 616.99653,826.06753 -6.39495,1.45965"
         style="fill:none;stroke:#000000"
         id="path860" />
      <path
         d="m 610.60158,827.52718 -5.12882,-4.08983"
         style="fill:none;stroke:#000000"
         id="path862" />
      <path
         d="m 1025.0003,823.43735 v -6.55974"
         style="fill:none;stroke:#000000"
         id="path864" />
      <path
         d="m 1025.0003,816.87761 5.1288,-4.08945"
         style="fill:none;stroke:#000000"
         id="path866" />
      <path
         d="m 1030.1291,812.78816 6.395,1.45927"
         style="fill:none;stroke:#000000"
         id="path868" />
      <path
         d="m 1036.5241,814.24743 2.846,5.91005"
         style="fill:none;stroke:#000000"
         id="path870" />
      <path
         d="m 1039.3701,820.15748 -2.846,5.91005"
         style="fill:none;stroke:#000000"
         id="path872" />
      <path
         d="m 1036.5241,826.06753 -6.395,1.45965"
         style="fill:none;stroke:#000000"
         id="path874" />
      <path
         d="m 1030.1291,827.52718 -5.1288,-4.08983"
         style="fill:none;stroke:#000000"
         id="path876" />
      <path
         d="m 420.27591,823.43735 v -6.55974"
         style="fill:none;stroke:#000000"
         id="path878" />
      <path
         d="m 420.27591,816.87761 5.12881,-4.08945"
         style="fill:none;stroke:#000000"
         id="path880" />
      <path
         d="m 425.40472,812.78816 6.39496,1.45927"
         style="fill:none;stroke:#000000"
         id="path882" />
      <path
         d="m 431.79968,814.24743 2.84599,5.91005"
         style="fill:none;stroke:#000000"
         id="path884" />
      <path
         d="m 434.64567,820.15748 -2.84599,5.91005"
         style="fill:none;stroke:#000000"
         id="path886" />
      <path
         d="m 431.79968,826.06753 -6.39496,1.45965"
         style="fill:none;stroke:#000000"
         id="path888" />
      <path
         d="m 425.40472,827.52718 -5.12881,-4.08983"
         style="fill:none;stroke:#000000"
         id="path890" />
      <path
         d="m 1210.1972,823.43735 v -6.55974"
         style="fill:none;stroke:#000000"
         id="path892" />
      <path
         d="m 1210.1972,816.87761 5.1288,-4.08945"
         style="fill:none;stroke:#000000"
         id="path894" />
      <path
         d="m 1215.326,812.78816 6.3949,1.45927"
         style="fill:none;stroke:#000000"
         id="path896" />
      <path
         d="m 1221.7209,814.24743 2.846,5.91005"
         style="fill:none;stroke:#000000"
         id="path898" />
      <path
         d="m 1224.5669,820.15748 -2.846,5.91005"
         style="fill:none;stroke:#000000"
         id="path900" />
      <path
         d="m 1221.7209,826.06753 -6.3949,1.45965"
         style="fill:none;stroke:#000000"
         id="path902" />
      <path
         d="m 1215.326,827.52718 -5.1288,-4.08983"
         style="fill:none;stroke:#000000"
         id="path904" />
    </g>
  </g>
</svg>
