<?xml version="1.0" encoding="UTF-8" standalone="no"?>
<svg
   xmlns:dc="http://purl.org/dc/elements/1.1/"
   xmlns:cc="http://creativecommons.org/ns#"
   xmlns:rdf="http://www.w3.org/1999/02/22-rdf-syntax-ns#"
   xmlns:svg="http://www.w3.org/2000/svg"
   xmlns="http://www.w3.org/2000/svg"
   xmlns:sodipodi="http://sodipodi.sourceforge.net/DTD/sodipodi-0.dtd"
   xmlns:inkscape="http://www.inkscape.org/namespaces/inkscape"
   width="297mm"
   height="210mm"
   viewBox="0 0 297 210"
   version="1.1"
   id="svg753"
   inkscape:version="1.0.1 (c497b03c, 2020-09-10)"
   sodipodi:docname="top_cutting_and_drilling_guide.svg">
  <defs
     id="defs747">
    <marker
       id="DistanceX"
       orient="auto"
       refX="0.0"
       refY="0.0"
       style="overflow:visible">
      <path
         d="M 3,-3 L -3,3 M 0,-5 L  0,5"
         style="stroke:#000000; stroke-width:0.5"
         id="path773" />
    </marker>
    <pattern
       id="Hatch"
       patternUnits="userSpaceOnUse"
       width="8"
       height="8"
       x="0"
       y="0">
      <path
         d="M8 4 l-4,4"
         stroke="#000000"
         stroke-width="0.25"
         linecap="square"
         id="path776" />
      <path
         d="M6 2 l-4,4"
         stroke="#000000"
         stroke-width="0.25"
         linecap="square"
         id="path778" />
      <path
         d="M4 0 l-4,4"
         stroke="#000000"
         stroke-width="0.25"
         linecap="square"
         id="path780" />
    </pattern>
  </defs>
  <sodipodi:namedview
     id="base"
     pagecolor="#ffffff"
     bordercolor="#666666"
     borderopacity="1.0"
     inkscape:pageopacity="0.0"
     inkscape:pageshadow="2"
     inkscape:zoom="0.35"
     inkscape:cx="400"
     inkscape:cy="560"
     inkscape:document-units="mm"
     inkscape:current-layer="layer1"
     inkscape:document-rotation="0"
     showgrid="false"
     inkscape:window-width="1179"
     inkscape:window-height="906"
     inkscape:window-x="2005"
     inkscape:window-y="203"
     inkscape:window-maximized="0" />
  <metadata
     id="metadata750">
    <rdf:RDF>
      <cc:Work
         rdf:about="">
        <dc:format>image/svg+xml</dc:format>
        <dc:type
           rdf:resource="http://purl.org/dc/dcmitype/StillImage" />
        <dc:title></dc:title>
      </cc:Work>
    </rdf:RDF>
  </metadata>
  <g
     inkscape:label="Layer 1"
     inkscape:groupmode="layer"
     id="layer1">
    <g
       inkscape:label="0"
       id="g1059"
       transform="matrix(0.26458333,0,0,0.26458333,13.39286,-149.60101)">
      <path
         d="m 677.55968,1116.9702 21.65292,-9.6413"
         style="fill:none;stroke:#000000"
         id="path787" />
      <path
         d="m 699.2126,1107.3289 19.17732,-13.933"
         style="fill:none;stroke:#000000"
         id="path789" />
      <path
         d="m 718.38992,1093.3959 15.86268,-17.6157"
         style="fill:none;stroke:#000000"
         id="path791" />
      <path
         d="m 734.2526,1075.7802 11.84882,-20.5282"
         style="fill:none;stroke:#000000"
         id="path793" />
      <path
         d="m 746.10142,1055.252 7.32472,-22.5437"
         style="fill:none;stroke:#000000"
         id="path795" />
      <path
         d="m 753.42614,1032.7083 2.47937,-23.5744"
         style="fill:none;stroke:#000000"
         id="path797" />
      <path
         d="M 755.90551,1009.1339 V 744.56693"
         style="fill:none;stroke:#000000"
         id="path799" />
      <path
         d="m 755.90551,744.56693 -2.47937,-23.57291"
         style="fill:none;stroke:#000000"
         id="path801" />
      <path
         d="m 753.42614,720.99402 -7.32472,-22.54489"
         style="fill:none;stroke:#000000"
         id="path803" />
      <path
         d="M 746.10142,698.44913 734.2526,677.91874"
         style="fill:none;stroke:#000000"
         id="path805" />
      <path
         d="m 734.2526,677.91874 -15.86268,-17.6126"
         style="fill:none;stroke:#000000"
         id="path807" />
      <path
         d="M 718.38992,660.30614 699.2126,646.37102"
         style="fill:none;stroke:#000000"
         id="path809" />
      <path
         d="m 699.2126,646.37102 -21.65292,-9.64157"
         style="fill:none;stroke:#000000"
         id="path811" />
      <path
         d="m 677.55968,636.72945 -23.1874,-4.92851"
         style="fill:none;stroke:#000000"
         id="path813" />
      <path
         d="M 654.37228,631.80094 H 101.53398"
         style="fill:none;stroke:#000000"
         id="path815" />
      <path
         d="m 101.53398,631.80094 -23.186263,4.92851"
         style="fill:none;stroke:#000000"
         id="path817" />
      <path
         d="m 78.347717,636.72945 -21.654804,9.64157"
         style="fill:none;stroke:#000000"
         id="path819" />
      <path
         d="M 56.692913,646.37102 37.515931,660.30614"
         style="fill:none;stroke:#000000"
         id="path821" />
      <path
         d="m 37.515931,660.30614 -15.861166,17.6126"
         style="fill:none;stroke:#000000"
         id="path823" />
      <path
         d="M 21.654765,677.91874 9.802734,698.44913"
         style="fill:none;stroke:#000000"
         id="path825" />
      <path
         d="M 9.802734,698.44913 2.477779,720.99402"
         style="fill:none;stroke:#000000"
         id="path827" />
      <path
         d="M 2.477779,720.99402 0,744.56693"
         style="fill:none;stroke:#000000"
         id="path829" />
      <path
         d="M 0,744.56693 V 1009.1339"
         style="fill:none;stroke:#000000"
         id="path831" />
      <path
         d="m 0,1009.1339 2.477779,23.5744"
         style="fill:none;stroke:#000000"
         id="path833" />
      <path
         d="m 2.477779,1032.7083 7.324955,22.5437"
         style="fill:none;stroke:#000000"
         id="path835" />
      <path
         d="m 9.802734,1055.252 11.852031,20.5282"
         style="fill:none;stroke:#000000"
         id="path837" />
      <path
         d="m 21.654765,1075.7802 15.861166,17.6157"
         style="fill:none;stroke:#000000"
         id="path839" />
      <path
         d="m 37.515931,1093.3959 19.176982,13.933"
         style="fill:none;stroke:#000000"
         id="path841" />
      <path
         d="m 56.692913,1107.3289 21.654804,9.6413"
         style="fill:none;stroke:#000000"
         id="path843" />
      <path
         d="m 78.347717,1116.9702 23.186263,4.9283"
         style="fill:none;stroke:#000000"
         id="path845" />
      <path
         d="m 101.53398,1121.8985 h 552.8383"
         style="fill:none;stroke:#000000"
         id="path847" />
      <path
         d="m 654.37228,1121.8985 23.1874,-4.9283"
         style="fill:none;stroke:#000000"
         id="path849" />
      <path
         d="m 66.481134,727.54016 -6.249449,-4.08567"
         style="fill:none;stroke:#000000"
         id="path851" />
      <path
         d="m 60.231685,723.45449 -4.585323,-5.88851"
         style="fill:none;stroke:#000000"
         id="path853" />
      <path
         d="m 55.646362,717.56598 -2.423811,-7.06015"
         style="fill:none;stroke:#000000"
         id="path855" />
      <path
         d="m 53.222551,710.50583 v -7.46835"
         style="fill:none;stroke:#000000"
         id="path857" />
      <path
         d="m 53.222551,703.03748 2.423811,-7.06016"
         style="fill:none;stroke:#000000"
         id="path859" />
      <path
         d="m 55.646362,695.97732 4.585323,-5.8885"
         style="fill:none;stroke:#000000"
         id="path861" />
      <path
         d="m 60.231685,690.08882 6.249449,-4.08567"
         style="fill:none;stroke:#000000"
         id="path863" />
      <path
         d="m 66.481134,686.00315 7.236661,-1.82929"
         style="fill:none;stroke:#000000"
         id="path865" />
      <path
         d="m 73.717795,684.17386 7.439622,0.61606"
         style="fill:none;stroke:#000000"
         id="path867" />
      <path
         d="m 81.157417,684.78992 6.83641,2.99717"
         style="fill:none;stroke:#000000"
         id="path869" />
      <path
         d="m 87.993827,687.78709 5.492031,5.057"
         style="fill:none;stroke:#000000"
         id="path871" />
      <path
         d="m 93.485858,692.84409 3.553134,6.56504"
         style="fill:none;stroke:#000000"
         id="path873" />
      <path
         d="m 97.038992,699.40913 1.228725,7.36252"
         style="fill:none;stroke:#000000"
         id="path875" />
      <path
         d="m 98.267717,706.77165 -1.228725,7.36252"
         style="fill:none;stroke:#000000"
         id="path877" />
      <path
         d="m 97.038992,714.13417 -3.553134,6.56504"
         style="fill:none;stroke:#000000"
         id="path879" />
      <path
         d="m 93.485858,720.69921 -5.492031,5.05701"
         style="fill:none;stroke:#000000"
         id="path881" />
      <path
         d="m 87.993827,725.75622 -6.83641,2.99717"
         style="fill:none;stroke:#000000"
         id="path883" />
      <path
         d="m 81.157417,728.75339 -7.439622,0.61984"
         style="fill:none;stroke:#000000"
         id="path885" />
      <path
         d="m 73.717795,729.37323 -7.236661,-1.83307"
         style="fill:none;stroke:#000000"
         id="path887" />
      <path
         d="m 671.2063,727.54016 -6.25134,-4.08567"
         style="fill:none;stroke:#000000"
         id="path889" />
      <path
         d="m 664.95496,723.45449 -4.58457,-5.88851"
         style="fill:none;stroke:#000000"
         id="path891" />
      <path
         d="m 660.37039,717.56598 -2.42267,-7.06015"
         style="fill:none;stroke:#000000"
         id="path893" />
      <path
         d="m 657.94772,710.50583 v -7.46835"
         style="fill:none;stroke:#000000"
         id="path895" />
      <path
         d="m 657.94772,703.03748 2.42267,-7.06016"
         style="fill:none;stroke:#000000"
         id="path897" />
      <path
         d="m 660.37039,695.97732 4.58457,-5.8885"
         style="fill:none;stroke:#000000"
         id="path899" />
      <path
         d="m 664.95496,690.08882 6.25134,-4.08567"
         style="fill:none;stroke:#000000"
         id="path901" />
      <path
         d="m 671.2063,686.00315 7.23779,-1.82929"
         style="fill:none;stroke:#000000"
         id="path903" />
      <path
         d="m 678.44409,684.17386 7.43811,0.61606"
         style="fill:none;stroke:#000000"
         id="path905" />
      <path
         d="m 685.8822,684.78992 6.83717,2.99717"
         style="fill:none;stroke:#000000"
         id="path907" />
      <path
         d="m 692.71937,687.78709 5.49165,5.057"
         style="fill:none;stroke:#000000"
         id="path909" />
      <path
         d="m 698.21102,692.84409 3.55276,6.56504"
         style="fill:none;stroke:#000000"
         id="path911" />
      <path
         d="m 701.76378,699.40913 1.22835,7.36252"
         style="fill:none;stroke:#000000"
         id="path913" />
      <path
         d="m 702.99213,706.77165 -1.22835,7.36252"
         style="fill:none;stroke:#000000"
         id="path915" />
      <path
         d="m 701.76378,714.13417 -3.55276,6.56504"
         style="fill:none;stroke:#000000"
         id="path917" />
      <path
         d="m 698.21102,720.69921 -5.49165,5.05701"
         style="fill:none;stroke:#000000"
         id="path919" />
      <path
         d="m 692.71937,725.75622 -6.83717,2.99717"
         style="fill:none;stroke:#000000"
         id="path921" />
      <path
         d="m 685.8822,728.75339 -7.43811,0.61984"
         style="fill:none;stroke:#000000"
         id="path923" />
      <path
         d="m 678.44409,729.37323 -7.23779,-1.83307"
         style="fill:none;stroke:#000000"
         id="path925" />
      <path
         d="m 161.37865,710.05228 v -6.56126"
         style="fill:none;stroke:#000000"
         id="path927" />
      <path
         d="m 161.37865,703.49102 5.12806,-4.08945"
         style="fill:none;stroke:#000000"
         id="path929" />
      <path
         d="m 166.50671,699.40157 6.39534,1.4589"
         style="fill:none;stroke:#000000"
         id="path931" />
      <path
         d="m 172.90205,700.86047 2.84598,5.91118"
         style="fill:none;stroke:#000000"
         id="path933" />
      <path
         d="m 175.74803,706.77165 -2.84598,5.91118"
         style="fill:none;stroke:#000000"
         id="path935" />
      <path
         d="m 172.90205,712.68283 -6.39534,1.4589"
         style="fill:none;stroke:#000000"
         id="path937" />
      <path
         d="m 166.50671,714.14173 -5.12806,-4.08945"
         style="fill:none;stroke:#000000"
         id="path939" />
      <path
         d="m 580.90583,710.05228 v -6.56126"
         style="fill:none;stroke:#000000"
         id="path941" />
      <path
         d="m 580.90583,703.49102 5.12882,-4.08945"
         style="fill:none;stroke:#000000"
         id="path943" />
      <path
         d="m 586.03465,699.40157 6.39496,1.4589"
         style="fill:none;stroke:#000000"
         id="path945" />
      <path
         d="m 592.42961,700.86047 2.84598,5.91118"
         style="fill:none;stroke:#000000"
         id="path947" />
      <path
         d="m 595.27559,706.77165 -2.84598,5.91118"
         style="fill:none;stroke:#000000"
         id="path949" />
      <path
         d="m 592.42961,712.68283 -6.39496,1.4589"
         style="fill:none;stroke:#000000"
         id="path951" />
      <path
         d="m 586.03465,714.14173 -5.12882,-4.08945"
         style="fill:none;stroke:#000000"
         id="path953" />
      <path
         d="m 66.481134,1067.6961 -6.249449,-4.0826"
         style="fill:none;stroke:#000000"
         id="path955" />
      <path
         d="m 60.231685,1063.6135 -4.585323,-5.8912"
         style="fill:none;stroke:#000000"
         id="path957" />
      <path
         d="m 55.646362,1057.7223 -2.423811,-7.0605"
         style="fill:none;stroke:#000000"
         id="path959" />
      <path
         d="m 53.222551,1050.6618 v -7.4653"
         style="fill:none;stroke:#000000"
         id="path961" />
      <path
         d="m 53.222551,1043.1965 2.423811,-7.0606"
         style="fill:none;stroke:#000000"
         id="path963" />
      <path
         d="m 55.646362,1036.1359 4.585323,-5.8907"
         style="fill:none;stroke:#000000"
         id="path965" />
      <path
         d="m 60.231685,1030.2452 6.249449,-4.0831"
         style="fill:none;stroke:#000000"
         id="path967" />
      <path
         d="m 66.481134,1026.1621 7.236661,-1.8327"
         style="fill:none;stroke:#000000"
         id="path969" />
      <path
         d="m 73.717795,1024.3294 7.439622,0.6165"
         style="fill:none;stroke:#000000"
         id="path971" />
      <path
         d="m 81.157417,1024.9459 6.83641,2.9987"
         style="fill:none;stroke:#000000"
         id="path973" />
      <path
         d="m 87.993827,1027.9446 5.492031,5.0558"
         style="fill:none;stroke:#000000"
         id="path975" />
      <path
         d="m 93.485858,1033.0004 3.553134,6.5655"
         style="fill:none;stroke:#000000"
         id="path977" />
      <path
         d="m 97.038992,1039.5659 1.228725,7.3632"
         style="fill:none;stroke:#000000"
         id="path979" />
      <path
         d="m 98.267717,1046.9291 -1.228725,7.3633"
         style="fill:none;stroke:#000000"
         id="path981" />
      <path
         d="m 97.038992,1054.2924 -3.553134,6.5654"
         style="fill:none;stroke:#000000"
         id="path983" />
      <path
         d="m 93.485858,1060.8578 -5.492031,5.0559"
         style="fill:none;stroke:#000000"
         id="path985" />
      <path
         d="m 87.993827,1065.9137 -6.83641,2.9987"
         style="fill:none;stroke:#000000"
         id="path987" />
      <path
         d="m 81.157417,1068.9124 -7.439622,0.6164"
         style="fill:none;stroke:#000000"
         id="path989" />
      <path
         d="m 73.717795,1069.5288 -7.236661,-1.8327"
         style="fill:none;stroke:#000000"
         id="path991" />
      <path
         d="m 671.2063,1067.6961 -6.25134,-4.0826"
         style="fill:none;stroke:#000000"
         id="path993" />
      <path
         d="m 664.95496,1063.6135 -4.58457,-5.8912"
         style="fill:none;stroke:#000000"
         id="path995" />
      <path
         d="m 660.37039,1057.7223 -2.42267,-7.0605"
         style="fill:none;stroke:#000000"
         id="path997" />
      <path
         d="m 657.94772,1050.6618 v -7.4653"
         style="fill:none;stroke:#000000"
         id="path999" />
      <path
         d="m 657.94772,1043.1965 2.42267,-7.0606"
         style="fill:none;stroke:#000000"
         id="path1001" />
      <path
         d="m 660.37039,1036.1359 4.58457,-5.8907"
         style="fill:none;stroke:#000000"
         id="path1003" />
      <path
         d="m 664.95496,1030.2452 6.25134,-4.0831"
         style="fill:none;stroke:#000000"
         id="path1005" />
      <path
         d="m 671.2063,1026.1621 7.23779,-1.8327"
         style="fill:none;stroke:#000000"
         id="path1007" />
      <path
         d="m 678.44409,1024.3294 7.43811,0.6165"
         style="fill:none;stroke:#000000"
         id="path1009" />
      <path
         d="m 685.8822,1024.9459 6.83717,2.9987"
         style="fill:none;stroke:#000000"
         id="path1011" />
      <path
         d="m 692.71937,1027.9446 5.49165,5.0558"
         style="fill:none;stroke:#000000"
         id="path1013" />
      <path
         d="m 698.21102,1033.0004 3.55276,6.5655"
         style="fill:none;stroke:#000000"
         id="path1015" />
      <path
         d="m 701.76378,1039.5659 1.22835,7.3632"
         style="fill:none;stroke:#000000"
         id="path1017" />
      <path
         d="m 702.99213,1046.9291 -1.22835,7.3633"
         style="fill:none;stroke:#000000"
         id="path1019" />
      <path
         d="m 701.76378,1054.2924 -3.55276,6.5654"
         style="fill:none;stroke:#000000"
         id="path1021" />
      <path
         d="m 698.21102,1060.8578 -5.49165,5.0559"
         style="fill:none;stroke:#000000"
         id="path1023" />
      <path
         d="m 692.71937,1065.9137 -6.83717,2.9987"
         style="fill:none;stroke:#000000"
         id="path1025" />
      <path
         d="m 685.8822,1068.9124 -7.43811,0.6164"
         style="fill:none;stroke:#000000"
         id="path1027" />
      <path
         d="m 678.44409,1069.5288 -7.23779,-1.8327"
         style="fill:none;stroke:#000000"
         id="path1029" />
      <path
         d="m 161.37865,1050.209 v -6.5597"
         style="fill:none;stroke:#000000"
         id="path1031" />
      <path
         d="m 161.37865,1043.6493 5.12806,-4.0895"
         style="fill:none;stroke:#000000"
         id="path1033" />
      <path
         d="m 166.50671,1039.5598 6.39534,1.4593"
         style="fill:none;stroke:#000000"
         id="path1035" />
      <path
         d="m 172.90205,1041.0191 2.84598,5.91"
         style="fill:none;stroke:#000000"
         id="path1037" />
      <path
         d="m 175.74803,1046.9291 -2.84598,5.9101"
         style="fill:none;stroke:#000000"
         id="path1039" />
      <path
         d="m 172.90205,1052.8392 -6.39534,1.4596"
         style="fill:none;stroke:#000000"
         id="path1041" />
      <path
         d="m 166.50671,1054.2988 -5.12806,-4.0898"
         style="fill:none;stroke:#000000"
         id="path1043" />
      <path
         d="m 580.90583,1050.209 v -6.5597"
         style="fill:none;stroke:#000000"
         id="path1045" />
      <path
         d="m 580.90583,1043.6493 5.12882,-4.0895"
         style="fill:none;stroke:#000000"
         id="path1047" />
      <path
         d="m 586.03465,1039.5598 6.39496,1.4593"
         style="fill:none;stroke:#000000"
         id="path1049" />
      <path
         d="m 592.42961,1041.0191 2.84598,5.91"
         style="fill:none;stroke:#000000"
         id="path1051" />
      <path
         d="m 595.27559,1046.9291 -2.84598,5.9101"
         style="fill:none;stroke:#000000"
         id="path1053" />
      <path
         d="m 592.42961,1052.8392 -6.39496,1.4596"
         style="fill:none;stroke:#000000"
         id="path1055" />
      <path
         d="m 586.03465,1054.2988 -5.12882,-4.0898"
         style="fill:none;stroke:#000000"
         id="path1057" />
    </g>
  </g>
</svg>
